# xmcd CD database file
#
# Track frame offsets:
#	150
#	28601
#	64763
#	88859
#	120054
#	137979
#	155092
#	172878
#	187628
#	216427
#	238019
#	259897
#	275338
#	299637
#	321107
#
# Disc length: 4588 seconds
#
# Revision: 0
# Processed by: cddbd v1.5.1PL0 Copyright (c) Steve Scherf et al.
# Submitted via: CDex 1.51
#
DISCID=db11ea0f
DTITLE=Blues Festival Luzern 2002 - Part II
DYEAR=2002
DGENRE=Blues
TTITLE0=01 Otis Clay - Sending up my timber
TTITLE1=02 Phil Guy - Last Time
TTITLE2=03 John Marx - I ain't doing nothing wrong
TTITLE3=04 Carl Weathersby - Waling the back streets and crying
TTITLE4=05 Jonny Viau - Punkin
TTITLE5=06 Fred James - Sneaky suspicion
TTITLE6=07 Little Buck Sinegal - Woman
TTITLE7=08 Little Smokey Smothers - Bluesman
TTITLE8=09 Lisa Bourne - Worry Mind
TTITLE9=10 Wallace Coleman - Way back home
TTITLE10=11 Billy Branche - Shake, Rattle and Roll
TTITLE11=12 Billy Flynn - Crazy bout mary
TTITLE12=13 Mary Ann Brandon - Time to kill
TTITLE13=14 Henry Gray - Shake a hand
TTITLE14=15 Larry Ladone - Living on borrowed time
EXTD=YEAR: 2002
EXTT0=
EXTT1=
EXTT2=
EXTT3=
EXTT4=
EXTT5=
EXTT6=
EXTT7=
EXTT8=
EXTT9=
EXTT10=
EXTT11=
EXTT12=
EXTT13=
EXTT14=
PLAYORDER=
